<?xml version="1.0" encoding="UTF-8"?>
<svg width="400px" height="300px" viewBox="0 0 400 300" xmlns="http://www.w3.org/2000/svg" xmlns:xlink="http://www.w3.org/1999/xlink" version="1.1">
 <!-- Generated by Pixelmator Pro 2.0.8 -->
 <g id="_556_bank_note_outline">
  <path id="Path" d="M98.47 181.35 L98.47 119.66 145.49 146.81 145.49 208.51 Z" fill="#a799b7" fill-opacity="1" stroke="none"/>
  <path id="Path-1" d="M145.49 209.51 C145.314 209.508 145.141 209.46 144.99 209.37 L98 182.22 C97.692 182.042 97.502 181.715 97.5 181.36 L97.5 119.66 C97.499 119.301 97.689 118.969 98 118.79 98.309 118.611 98.691 118.611 99 118.79 L146 145.94 C146.311 146.119 146.501 146.451 146.5 146.81 L146.5 208.51 C146.498 208.865 146.308 209.192 146 209.37 145.846 209.462 145.669 209.51 145.49 209.51 Z M99.49 180.78 L144.49 206.78 144.49 147.39 99.49 121.39 Z" fill="#093f68" fill-opacity="1" stroke="none"/>
  <path id="Path-2" d="M145.5 208.52 L145.5 146.82 247.2 88.06 247.2 149.76 Z" fill="#093f68" fill-opacity="1" stroke="none"/>
  <path id="Path-3" d="M145.5 209.52 C145.325 209.521 145.152 209.476 145 209.39 144.689 209.211 144.499 208.879 144.5 208.52 L144.5 146.82 C144.502 146.465 144.692 146.138 145 145.96 L246.7 87.2 C247.009 87.021 247.391 87.021 247.7 87.2 248.008 87.378 248.198 87.705 248.2 88.06 L248.2 149.76 C248.201 150.119 248.011 150.451 247.7 150.63 L146 209.39 C145.848 209.476 145.675 209.521 145.5 209.52 Z M146.5 147.4 L146.5 206.79 246.2 149.18 246.2 89.79 Z" fill="#093f68" fill-opacity="1" stroke="none"/>
  <path id="Path-4" d="M145.49 155.08 C145.315 155.081 145.142 155.036 144.99 154.95 L98 127.8 C97.52 127.524 97.354 126.91 97.63 126.43 97.906 125.95 98.52 125.784 99 126.06 L145.53 152.93 246.7 94.49 C247.18 94.214 247.794 94.38 248.07 94.86 248.346 95.341 248.18 95.954 247.7 96.23 L146 155 C145.84 155.071 145.664 155.098 145.49 155.08 Z" fill="#093f68" fill-opacity="1" stroke="none"/>
  <path id="Path-5" d="M145.49 164.33 C145.315 164.331 145.142 164.286 144.99 164.2 L98 137.05 C97.548 136.763 97.402 136.17 97.671 135.706 97.939 135.242 98.525 135.072 99 135.32 L145.53 162.18 246.7 103.75 C247.175 103.477 247.782 103.637 248.06 104.11 248.194 104.339 248.232 104.613 248.164 104.87 248.097 105.127 247.93 105.346 247.7 105.48 L146 164.2 C145.845 164.288 145.669 164.333 145.49 164.33 Z" fill="#093f68" fill-opacity="1" stroke="none"/>
  <path id="Path-6" d="M145.49 173.59 C145.314 173.588 145.141 173.54 144.99 173.45 L98 146.3 C97.548 146.013 97.402 145.42 97.671 144.956 97.939 144.492 98.525 144.322 99 144.57 L145.53 171.43 246.7 113 C247.175 112.752 247.761 112.922 248.029 113.386 248.298 113.85 248.152 114.443 247.7 114.73 L146 173.45 C145.846 173.542 145.669 173.59 145.49 173.59 Z" fill="#093f68" fill-opacity="1" stroke="none"/>
  <path id="Path-7" d="M145.49 182.84 C145.315 182.841 145.142 182.796 144.99 182.71 L98 155.56 C97.77 155.426 97.603 155.207 97.536 154.95 97.468 154.693 97.506 154.419 97.64 154.19 97.918 153.717 98.525 153.557 99 153.83 L145.53 180.69 246.7 122.25 C247.181 121.974 247.794 122.14 248.07 122.62 248.346 123.101 248.18 123.714 247.7 123.99 L146 182.71 C145.845 182.798 145.669 182.843 145.49 182.84 Z" fill="#093f68" fill-opacity="1" stroke="none"/>
  <path id="Path-8" d="M145.49 192.1 C145.314 192.098 145.141 192.05 144.99 191.96 L98 164.81 C97.548 164.523 97.402 163.93 97.671 163.466 97.939 163.002 98.525 162.832 99 163.08 L145.53 189.94 246.7 131.51 C247.175 131.262 247.761 131.432 248.029 131.896 248.297 132.36 248.152 132.952 247.7 133.24 L146 192 C145.842 192.078 145.666 192.112 145.49 192.1 Z" fill="#093f68" fill-opacity="1" stroke="none"/>
  <path id="Path-9" d="M145.49 201.35 C145.315 201.347 145.144 201.303 144.99 201.22 L98 174.07 C97.52 173.794 97.354 173.18 97.63 172.7 97.906 172.22 98.52 172.054 99 172.33 L145.53 199.2 246.7 140.76 C247.18 140.484 247.794 140.65 248.07 141.13 248.346 141.61 248.18 142.224 247.7 142.5 L146 201.22 C145.843 201.303 145.668 201.347 145.49 201.35 Z" fill="#093f68" fill-opacity="1" stroke="none"/>
  <path id="Path-10" d="M205.78 173.41 L185.82 184.94 185.82 123.6 205.78 112.08 Z" fill="#ffffff" fill-opacity="1" stroke="none"/>
  <path id="Path-11" d="M185.82 185.94 C185.644 185.938 185.471 185.89 185.32 185.8 185.012 185.622 184.822 185.295 184.82 184.94 L184.82 123.6 C184.822 123.245 185.012 122.918 185.32 122.74 L205.32 111.21 C205.629 111.031 206.011 111.031 206.32 111.21 206.631 111.389 206.821 111.721 206.82 112.08 L206.82 173.41 C206.821 173.769 206.631 174.101 206.32 174.28 L186.32 185.8 C186.169 185.89 185.996 185.938 185.82 185.94 Z M186.82 124.18 L186.82 183.18 204.82 172.81 204.82 113.81 Z" fill="#093f68" fill-opacity="1" stroke="none"/>
  <path id="Path-12" d="M98.46 119.66 L200.17 60.94 247.2 88.09 145.49 146.81 Z" fill="#a799b7" fill-opacity="1" stroke="none"/>
  <path id="Path-13" d="M145.49 147.81 C145.315 147.811 145.142 147.766 144.99 147.68 L98 120.53 C97.692 120.351 97.502 120.022 97.502 119.665 97.502 119.308 97.692 118.979 98 118.8 L199.67 60.08 C199.979 59.901 200.361 59.901 200.67 60.08 L247.67 87.23 C247.978 87.409 248.168 87.738 248.168 88.095 248.168 88.452 247.978 88.781 247.67 88.96 L146 147.68 C145.845 147.768 145.669 147.813 145.49 147.81 Z M100.49 119.66 L145.49 145.66 245.2 88.09 200.2 62.09 Z" fill="#093f68" fill-opacity="1" stroke="none"/>
  <path id="Path-14" d="M138.33 134.94 L118.49 123.48 118.76 123.33 C123.21 120.77 123.29 116.64 119 114.02 L189.84 73.12 C194.38 75.59 201.53 75.54 205.98 72.98 L206.24 72.82 226.08 84.27 225.8 84.42 C221.36 86.99 221.29 91.12 225.56 93.74 L154.71 134.64 C150.18 132.17 143.03 132.21 138.59 134.78 138.5 134.827 138.413 134.881 138.33 134.94 Z" fill="#a799b7" fill-opacity="1" stroke="none"/>
  <path id="Path-15" d="M138.33 135.94 C138.154 135.938 137.981 135.89 137.83 135.8 L118 124.35 C117.68 124.165 117.488 123.819 117.5 123.45 117.51 123.078 117.726 122.743 118.06 122.58 L118.27 122.47 C120.12 121.4 121.15 120.04 121.17 118.64 121.19 117.24 120.23 115.94 118.49 114.88 118.18 114.696 117.993 114.36 118 114 118.006 113.648 118.196 113.326 118.5 113.15 L189.34 72.24 C189.649 72.061 190.031 72.061 190.34 72.24 194.58 74.55 201.34 74.49 205.5 72.11 L205.69 71.99 C206.017 71.783 206.433 71.783 206.76 71.99 L226.6 83.45 C226.917 83.637 227.106 83.983 227.091 84.351 227.076 84.719 226.861 85.049 226.53 85.21 L226.33 85.33 C224.48 86.4 223.45 87.75 223.43 89.15 223.41 90.55 224.36 91.86 226.1 92.93 226.4 93.113 226.582 93.439 226.58 93.79 226.574 94.142 226.385 94.464 226.08 94.64 L155.23 135.55 C154.921 135.729 154.539 135.729 154.23 135.55 150 133.24 143.23 133.29 139.09 135.67 L138.89 135.79 C138.722 135.894 138.527 135.946 138.33 135.94 Z M120.41 123.44 L138.32 133.78 C143.465 131.265 149.462 131.162 154.69 133.5 L223.69 93.64 C222.265 92.555 221.411 90.881 221.37 89.09 221.482 87.157 222.497 85.39 224.11 84.32 L206.24 74 C201.095 76.515 195.098 76.618 189.87 74.28 L120.87 114.14 C122.297 115.224 123.155 116.898 123.2 118.69 123.066 120.623 122.033 122.382 120.41 123.44 Z" fill="#093f68" fill-opacity="1" stroke="none"/>
  <path id="Path-16" d="M138.79 96.38 L158.75 84.86 205.78 112.01 185.82 123.53 Z" fill="#ffffff" fill-opacity="1" stroke="none"/>
  <path id="Path-17" d="M185.82 124.53 C185.645 124.531 185.472 124.486 185.32 124.4 L138.32 97.25 C138.007 97.072 137.813 96.74 137.813 96.38 137.813 96.02 138.007 95.688 138.32 95.51 L158.32 83.99 C158.629 83.811 159.011 83.811 159.32 83.99 L206.32 111.14 C206.631 111.319 206.821 111.651 206.82 112.01 206.818 112.365 206.628 112.692 206.32 112.87 L186.32 124.4 C186.168 124.486 185.995 124.531 185.82 124.53 Z M140.82 96.38 L185.82 122.38 203.82 112.01 158.82 86.01 Z" fill="#093f68" fill-opacity="1" stroke="none"/>
  <path id="Path-18" d="M152.81 211.89 L152.81 150.19 199.84 177.35 199.84 239.04 Z" fill="#a799b7" fill-opacity="1" stroke="none"/>
  <path id="Path-19" d="M199.83 240 C199.655 240.001 199.482 239.956 199.33 239.87 L152.33 212.72 C152.019 212.541 151.829 212.209 151.83 211.85 L151.83 150.2 C151.829 149.841 152.019 149.509 152.33 149.33 152.639 149.151 153.021 149.151 153.33 149.33 L200.33 176.48 C200.641 176.659 200.831 176.991 200.83 177.35 L200.83 239 C200.831 239.359 200.641 239.691 200.33 239.87 200.178 239.956 200.005 240.001 199.83 240 Z M153.83 211.28 L198.83 237.28 198.83 177.92 153.83 151.92 Z" fill="#093f68" fill-opacity="1" stroke="none"/>
  <path id="Path-20" d="M199.84 239.06 L199.84 177.36 301.54 118.6 301.54 180.3 Z" fill="#a799b7" fill-opacity="1" stroke="none"/>
  <path id="Path-21" d="M199.84 240.06 C199.664 240.058 199.491 240.01 199.34 239.92 199.032 239.742 198.842 239.415 198.84 239.06 L198.84 177.36 C198.839 177.001 199.029 176.669 199.34 176.49 L301 117.73 C301.309 117.551 301.691 117.551 302 117.73 302.311 117.909 302.501 118.241 302.5 118.6 L302.5 180.3 C302.498 180.655 302.308 180.982 302 181.16 L200.3 239.92 C200.16 240.003 200.002 240.051 199.84 240.06 Z M200.84 177.94 L200.84 237.33 300.54 179.72 300.54 120.33 Z" fill="#093f68" fill-opacity="1" stroke="none"/>
  <path id="Path-22" d="M199.83 185.62 C199.654 185.618 199.481 185.57 199.33 185.48 L152.33 158.33 C151.878 158.043 151.732 157.45 152.001 156.986 152.269 156.522 152.855 156.352 153.33 156.6 L199.86 183.46 301 125 C301.475 124.752 302.061 124.922 302.329 125.386 302.598 125.85 302.452 126.443 302 126.73 L200.33 185.48 C200.179 185.57 200.006 185.618 199.83 185.62 Z" fill="#093f68" fill-opacity="1" stroke="none"/>
  <path id="Path-23" d="M199.83 194.87 C199.655 194.871 199.482 194.826 199.33 194.74 L152.33 167.59 C152.1 167.456 151.933 167.237 151.866 166.98 151.798 166.723 151.836 166.449 151.97 166.22 152.248 165.747 152.855 165.587 153.33 165.86 L199.86 192.72 301 134.29 C301.475 134.017 302.082 134.177 302.36 134.65 302.626 135.123 302.467 135.722 302 136 L200.33 194.74 C200.178 194.826 200.005 194.871 199.83 194.87 Z" fill="#093f68" fill-opacity="1" stroke="none"/>
  <path id="Path-24" d="M199.83 204.13 C199.654 204.128 199.481 204.08 199.33 203.99 L152.33 176.84 C152.1 176.706 151.933 176.487 151.866 176.23 151.798 175.973 151.836 175.699 151.97 175.47 152.248 174.997 152.855 174.837 153.33 175.11 L199.83 202 301 143.54 C301.475 143.267 302.082 143.428 302.36 143.9 302.494 144.129 302.532 144.403 302.464 144.66 302.397 144.917 302.23 145.136 302 145.27 L200.33 204 C200.178 204.086 200.005 204.131 199.83 204.13 Z" fill="#093f68" fill-opacity="1" stroke="none"/>
  <path id="Path-25" d="M199.83 213.38 C199.655 213.377 199.484 213.333 199.33 213.25 L152.33 186.09 C151.878 185.802 151.733 185.21 152.001 184.746 152.269 184.282 152.855 184.112 153.33 184.36 L199.86 211.23 301 152.79 C301.475 152.542 302.061 152.712 302.329 153.176 302.597 153.64 302.452 154.232 302 154.52 L200.33 213.25 C200.176 213.333 200.005 213.377 199.83 213.38 Z" fill="#093f68" fill-opacity="1" stroke="none"/>
  <path id="Path-26" d="M199.83 222.63 C199.655 222.631 199.482 222.586 199.33 222.5 L152.33 195.35 C152.1 195.216 151.933 194.997 151.866 194.74 151.798 194.483 151.836 194.209 151.97 193.98 152.248 193.507 152.855 193.347 153.33 193.62 L199.86 220.48 301 162.05 C301.475 161.777 302.082 161.937 302.36 162.41 302.494 162.639 302.532 162.913 302.464 163.17 302.397 163.427 302.23 163.646 302 163.78 L200.33 222.5 C200.178 222.586 200.005 222.631 199.83 222.63 Z" fill="#093f68" fill-opacity="1" stroke="none"/>
  <path id="Path-27" d="M199.83 231.89 C199.654 231.888 199.481 231.84 199.33 231.75 L152.33 204.6 C151.878 204.313 151.732 203.72 152.001 203.256 152.269 202.792 152.855 202.622 153.33 202.87 L199.86 229.73 301 171.3 C301.475 171.052 302.061 171.222 302.329 171.686 302.598 172.15 302.452 172.743 302 173.03 L200.33 231.75 C200.179 231.84 200.006 231.888 199.83 231.89 Z" fill="#093f68" fill-opacity="1" stroke="none"/>
  <path id="Path-28" d="M260.12 203.95 L240.16 215.47 240.16 154.14 260.12 142.62 Z" fill="#ffffff" fill-opacity="1" stroke="none"/>
  <path id="Path-29" d="M240.16 216.47 C239.985 216.471 239.812 216.426 239.66 216.34 239.349 216.161 239.159 215.829 239.16 215.47 L239.16 154.14 C239.162 153.785 239.352 153.458 239.66 153.28 L259.66 141.75 C259.969 141.571 260.351 141.571 260.66 141.75 260.971 141.929 261.161 142.261 261.16 142.62 L261.16 204 C261.161 204.359 260.971 204.691 260.66 204.87 L240.66 216.39 C240.503 216.459 240.331 216.487 240.16 216.47 Z M241.16 154.72 L241.16 213.72 259.16 203.36 259.16 144.36 Z" fill="#093f68" fill-opacity="1" stroke="none"/>
  <path id="Path-30" d="M152.8 150.2 L254.51 91.48 301.54 118.63 199.83 177.35 Z" fill="#a799b7" fill-opacity="1" stroke="none"/>
  <path id="Path-31" d="M199.83 178.35 C199.655 178.351 199.482 178.306 199.33 178.22 L152.33 151.07 C152.017 150.892 151.823 150.56 151.823 150.2 151.823 149.84 152.017 149.508 152.33 149.33 L254 90.61 C254.309 90.431 254.691 90.431 255 90.61 L302 117.76 C302.313 117.938 302.507 118.27 302.507 118.63 302.507 118.99 302.313 119.322 302 119.5 L200.33 178.22 C200.178 178.306 200.005 178.351 199.83 178.35 Z M154.83 150.2 L199.83 176.2 299.54 118.63 254.54 92.63 Z" fill="#093f68" fill-opacity="1" stroke="none"/>
  <path id="Path-32" d="M192.67 165.47 L172.83 154 173.11 153.85 C177.55 151.28 177.63 147.16 173.34 144.54 L244.19 103.64 C248.72 106.11 255.88 106.06 260.32 103.5 L260.58 103.34 280.42 114.79 280.14 114.94 C275.7 117.51 275.63 121.64 279.9 124.26 L209.05 165.16 C204.52 162.69 197.37 162.73 192.93 165.29 Z" fill="#a799b7" fill-opacity="1" stroke="none"/>
  <path id="Path-33" d="M192.67 166.47 C192.495 166.471 192.322 166.426 192.17 166.34 L172.33 154.89 C172.007 154.706 171.812 154.358 171.825 153.987 171.838 153.615 172.055 153.281 172.39 153.12 L172.59 153.01 C174.45 151.94 175.48 150.58 175.5 149.18 175.52 147.78 174.56 146.48 172.82 145.41 172.516 145.23 172.33 144.903 172.33 144.55 172.33 144.197 172.516 143.87 172.82 143.69 L243.67 102.79 C243.979 102.611 244.361 102.611 244.67 102.79 248.9 105.1 255.67 105.04 259.82 102.66 L260.02 102.54 C260.344 102.337 260.756 102.337 261.08 102.54 L280.92 113.99 C281.243 114.174 281.438 114.522 281.425 114.893 281.412 115.265 281.195 115.599 280.86 115.76 L280.66 115.87 C278.8 116.94 277.77 118.3 277.75 119.7 277.73 121.1 278.68 122.41 280.42 123.47 280.724 123.65 280.91 123.977 280.91 124.33 280.91 124.683 280.724 125.01 280.42 125.19 L209.57 166.1 C209.261 166.279 208.879 166.279 208.57 166.1 204.33 163.79 197.57 163.84 193.42 166.22 193.35 166.255 193.283 166.295 193.22 166.34 193.053 166.435 192.862 166.48 192.67 166.47 Z M174.75 154 L192.67 164.34 C197.794 161.811 203.775 161.687 209 164 L278 124.14 C276.576 123.054 275.723 121.38 275.68 119.59 275.799 117.654 276.816 115.886 278.43 114.81 L260.51 104.47 C255.366 106.989 249.368 107.092 244.14 104.75 L175.14 144.61 C176.552 145.705 177.403 147.373 177.46 149.16 177.374 151.111 176.368 152.907 174.75 154 Z" fill="#093f68" fill-opacity="1" stroke="none"/>
  <path id="Path-34" d="M193.13 126.92 L213.09 115.39 260.12 142.54 240.16 154.07 Z" fill="#ffffff" fill-opacity="1" stroke="none"/>
  <path id="Path-35" d="M240.16 155.07 C239.984 155.068 239.811 155.02 239.66 154.93 L192.66 127.78 C192.352 127.601 192.162 127.272 192.162 126.915 192.162 126.558 192.352 126.229 192.66 126.05 L212.66 114.53 C212.969 114.351 213.351 114.351 213.66 114.53 L260.66 141.68 C260.968 141.859 261.158 142.188 261.158 142.545 261.158 142.902 260.968 143.231 260.66 143.41 L240.66 154.93 C240.509 155.02 240.336 155.068 240.16 155.07 Z M195.16 126.92 L240.16 152.92 258.16 142.55 213.16 116.55 Z" fill="#093f68" fill-opacity="1" stroke="none"/>
 </g>
</svg>
